<svg xmlns="http://www.w3.org/2000/svg" width="24" height="24" viewBox="0 0 24 24">
    <path d="M16 3v3.01h3.77L20.778 10H22c1.054 0 1.918.817 1.995 1.851L24 12v5h-2.036c.024.163.036.33.036.5 0 1.933-1.567 3.5-3.5 3.5S15 19.433 15 17.5c0-.17.012-.337.035-.5h-6.07c.023.163.035.33.035.5C9 19.433 7.433 21 5.5 21S2 19.433 2 17.5c0-.17.012-.337.035-.5H0V3h16zM5.5 16c-.828 0-1.5.672-1.5 1.5S4.672 19 5.5 19 7 18.328 7 17.5 6.328 16 5.5 16zm13 0c-.828 0-1.5.672-1.5 1.5s.672 1.5 1.5 1.5 1.5-.672 1.5-1.5-.672-1.5-1.5-1.5zm-.287-7.99H16v7.04c.593-.605 1.405-.996 2.308-1.045L18.5 14c.953 0 1.816.38 2.447.998l1.052.001.001-3h-2.779L18.213 8.01zM14 5H2v10h1.05c.632-.619 1.496-1 2.45-1 .954 0 1.818.381 2.45 1H14V5z"/>
</svg>
