<svg xmlns="http://www.w3.org/2000/svg" width="24" height="24" viewBox="0 0 24 24">
    <path d="M6.5 0C8.433 0 10 1.567 10 3.5c0 1.067-.478 2.023-1.231 2.665l4.23 1.752L13 3h10v10h-5.946l-5.2.6-2.855-1.204v.188l3.886 3.887 1.88 6.263-5.486 1.27-1.178-4.488-.404-.404-.039.57-2.829 4.297-4.824-2.63 2.532-3.713.462-3.697L3 7.5l1.502-1.126C3.594 5.742 3 4.69 3 3.5 3 1.567 4.567 0 6.5 0zm-.278 7.582L5 8.499l-.001 5.085 4.9 4.9.821 3.133 1.516-.351-1.121-3.736L7 13.414v-4.03l5.146 2.169L16 11.108V10h-3.199L7.993 8.008l-1.771-.426zm-1.484 8.571l-.276 2.21-1.56 2.287 1.268.691 1.529-2.322.122-1.783-1.083-1.083zM21 5h-6v3h3v3h3V5zM6.5 2C5.672 2 5 2.672 5 3.5S5.672 5 6.5 5 8 4.328 8 3.5 7.328 2 6.5 2z"/>
</svg>
