<svg xmlns="http://www.w3.org/2000/svg" width="24" height="24" viewBox="0 0 24 24">
    <path fill-rule="evenodd" d="M20 2c1.105 0 2 .895 2 2v16c0 1.105-.895 2-2 2H4c-1.105 0-2-.895-2-2V4c0-1.105.895-2 2-2h16zm-7.96 4.688c-2.909 0-5.274 2.365-5.274 5.273 0 2.908 2.365 5.273 5.273 5.273 2.908 0 5.274-2.365 5.274-5.273 0-2.908-2.366-5.274-5.274-5.274zm0 1.171c2.26 0 4.1 1.84 4.1 4.102 0 2.261-1.84 4.101-4.1 4.101-2.262 0-4.102-1.84-4.102-4.101s1.84-4.102 4.101-4.102zM18.5 4c-.827 0-1.5.673-1.5 1.5S17.673 7 18.5 7 20 6.327 20 5.5 19.327 4 18.5 4z"/>
</svg>
