<svg xmlns="http://www.w3.org/2000/svg" width="24" height="24" viewBox="0 0 24 24">
    <path fill-rule="evenodd" d="M20 2c1.105 0 2 .895 2 2v16c0 1.105-.895 2-2 2H4c-1.105 0-2-.895-2-2V4c0-1.105.895-2 2-2h16zm-4.515 7.26c-1.148-.043-2.227.55-2.807 1.542h-.04V9.497H9.793v9.544h2.964V14.32c0-1.245.236-2.45 1.78-2.45 1.52 0 1.54 1.424 1.54 2.53v4.641h2.964l.001-5.235c0-2.57-.554-4.546-3.557-4.546zm-7.554.237H4.965v9.544H7.93V9.497zM6.45 4.753c-.95 0-1.72.77-1.72 1.72s.77 1.72 1.72 1.72c.457 0 .894-.181 1.217-.504.322-.323.503-.76.503-1.216 0-.95-.77-1.72-1.72-1.72z"/>
</svg>
