<svg xmlns="http://www.w3.org/2000/svg" width="24" height="24" viewBox="0 0 24 24">
    <path fill-rule="evenodd" d="M20.5 2c.828 0 1.5.672 1.5 1.5v17c0 .828-.672 1.5-1.5 1.5l-11.442.002c.35-.606.739-1.363.958-2.04l.082-.286.671-2.55c.345.67 1.368 1.235 2.454 1.235 3.23 0 5.56-2.975 5.56-6.673 0-3.548-2.894-6.196-6.61-6.196-4.634 0-7.088 3.107-7.088 6.487 0 1.58.839 3.531 2.18 4.158.203.097.318.053.362-.142l.3-1.218c.027-.106.018-.203-.07-.309-.442-.538-.795-1.527-.795-2.445 0-2.365 1.792-4.651 4.846-4.651 2.64 0 4.484 1.792 4.484 4.36 0 2.895-1.465 4.908-3.372 4.908-1.05 0-1.845-.874-1.589-1.942.31-1.28.892-2.657.892-3.575 0-.82-.442-1.51-1.36-1.51-1.076 0-1.941 1.113-1.941 2.605 0 .944.317 1.588.317 1.588l-1.253 5.332c-.17.741-.152 1.725-.09 2.523l.031.339H3.5c-.828 0-1.5-.672-1.5-1.5v-17C2 2.672 2.672 2 3.5 2h17z"/>
</svg>
