<svg xmlns="http://www.w3.org/2000/svg" width="24" height="24" viewBox="0 0 24 24">
    <path fill-rule="evenodd" d="M20.761 8.094c0-.196 0-.39-.013-.584.883-.639 1.646-1.43 2.252-2.336-.824.365-1.698.604-2.592.71.942-.564 1.647-1.451 1.984-2.497-.886.526-1.855.897-2.866 1.096-1.4-1.488-3.623-1.852-5.423-.888-1.8.963-2.731 3.015-2.27 5.005-3.629-.182-7.01-1.897-9.302-4.716-1.198 2.062-.586 4.7 1.398 6.025-.719-.021-1.421-.215-2.049-.565v.057c0 2.149 1.515 4 3.621 4.425-.664.181-1.362.208-2.038.077.591 1.839 2.286 3.099 4.217 3.135-1.598 1.256-3.573 1.938-5.606 1.936-.359 0-.717-.023-1.074-.065 2.064 1.324 4.466 2.027 6.919 2.024 8.301.003 12.842-6.875 12.842-12.84z"/>
</svg>
