<svg xmlns="http://www.w3.org/2000/svg" width="17" height="16" viewBox="0 0 17 16">
    <g fill="none" fill-rule="evenodd">
        <g fill="#ED1C24">
            <g>
                <g>
                    <path d="M8 0c4.418 0 8 3.582 8 8s-3.582 8-8 8-8-3.582-8-8 3.582-8 8-8zm0 1.333C4.318 1.333 1.333 4.318 1.333 8S4.318 14.667 8 14.667 14.667 11.682 14.667 8 11.682 1.333 8 1.333zm-2.667 2.13L12.591 8l-7.258 4.536V3.464zM6.667 5.87v4.262l3.409-2.132-3.41-2.13z" transform="translate(-127 -351) translate(108 338) translate(19.294 13)"/>
                </g>
            </g>
        </g>
    </g>
</svg>
